<svg width="1366" height="120" viewBox="0 0 1366 120" fill="none" xmlns="http://www.w3.org/2000/svg">
        <path fill-rule="evenodd" clip-rule="evenodd" d="M1366 0H0V85V92.5147V109.589C3.07551 109.788 6.3876 109.986 9.69969 109.589C15.1413 108.909 20.7756 108.52 26.447 108.127C34.83 107.548 43.2941 106.963 51.3374 105.425C57.4884 104.334 65.0589 104.83 71.9196 105.623C74.9951 106.02 78.3072 106.218 81.6193 106.02C85.8268 105.699 89.725 106.415 93.5641 107.121C94.474 107.288 95.3806 107.454 96.2871 107.606C102.675 108.598 108.826 108.598 115.45 108.3C118.131 108.234 120.812 108.256 123.494 108.278C124.834 108.289 126.175 108.3 127.515 108.3C130.827 108.3 133.903 108.201 135.796 106.516C137.215 105.227 140.291 105.425 143.13 105.722C143.375 105.751 143.62 105.78 143.863 105.808C147.853 106.274 151.669 106.72 155.905 106.813C166.078 107.21 174.594 105.623 183.111 103.739C185.95 103.045 189.026 102.351 192.338 103.045C196.912 104.072 201.485 103.728 206.059 103.384C208.11 103.23 210.16 103.076 212.21 103.045C219.978 102.95 227.525 102.484 235.278 102.006L236.105 101.955C239.653 101.756 243.675 102.252 246.751 102.847C252.948 104.059 259.326 103.759 265.569 103.466C266.476 103.423 267.379 103.38 268.279 103.343C279.871 102.847 290.991 103.442 301.163 105.623C303.131 106.036 305.163 106.1 307.192 106.164C309.066 106.223 310.938 106.282 312.756 106.615C321.509 108.201 330.263 109.49 339.252 110.68C342.289 111.134 345.325 110.672 348.361 110.21C348.637 110.168 348.913 110.126 349.189 110.085C351.105 109.788 352.957 109.41 354.81 109.032C359.132 108.151 363.454 107.269 368.588 107.408C370.954 107.458 373.261 107.532 375.567 107.606C377.874 107.681 380.18 107.755 382.546 107.805C382.914 107.82 383.282 107.84 383.648 107.86C385.642 107.97 387.609 108.078 389.407 107.408C389.88 107.309 390.826 107.21 391.3 107.309C396.65 108.243 402.374 108.317 408.061 108.39C411.426 108.433 414.779 108.476 418.033 108.697C418.34 108.697 418.672 108.707 419.013 108.718C419.722 108.74 420.469 108.764 421.108 108.697C433.174 107.011 444.056 108.102 453.52 111.374C455.853 112.146 458.57 112.624 461.272 113.1C463.773 113.54 466.263 113.978 468.424 114.646C468.515 114.665 468.615 114.688 468.719 114.711C469.153 114.81 469.652 114.924 469.843 114.844C475.438 113.756 479.682 114.859 483.859 115.945C484.628 116.145 485.395 116.345 486.167 116.53C494.921 118.513 504.147 119.108 512.664 117.323C518.105 116.232 521.891 116.331 526.385 117.422C530.682 118.435 535.437 118.65 540.172 118.863C543.78 119.026 547.377 119.188 550.753 119.703C553.201 120.097 555.2 119.549 556.987 119.059C557.445 118.934 557.889 118.812 558.323 118.711C565.184 116.827 572.991 116.133 581.035 115.935C583.637 115.935 585.767 115.538 587.423 114.745C591.918 112.762 597.122 112.167 602.8 113.258C603.165 113.319 603.529 113.381 603.891 113.444C608.228 114.187 612.41 114.905 616.995 113.258C618.315 112.704 620.455 113.095 622.08 113.391C622.202 113.414 622.321 113.435 622.436 113.456C628.824 114.448 635.448 114.844 642.072 114.547C644.638 114.427 647.032 114.02 649.462 113.606C651.064 113.334 652.682 113.058 654.374 112.861C657.686 112.465 660.525 112.465 664.074 113.059C677.559 115.538 691.517 117.422 706.421 117.62C710.443 117.72 713.992 117.918 717.777 118.513C722.796 119.389 727.631 118.716 732.28 118.069C732.89 117.984 733.497 117.899 734.101 117.819C734.653 117.753 735.178 117.642 735.704 117.532C736.756 117.312 737.807 117.092 739.069 117.224C745.397 117.797 751.478 117.179 757.491 116.567C759.795 116.333 762.089 116.1 764.383 115.935C765.802 115.836 766.985 115.836 768.404 115.836C771.953 115.935 775.265 115.737 778.814 115.042C784.991 113.824 791.587 113.191 798.173 112.558C800.163 112.367 802.152 112.176 804.128 111.969C807.249 111.693 809.572 111.992 811.967 112.299C813.022 112.435 814.09 112.572 815.247 112.663C820.251 112.998 825.256 112.553 830.26 112.108C831.17 112.027 832.08 111.946 832.99 111.87C833.689 111.797 834.387 111.72 835.086 111.644C840.068 111.101 845.073 110.555 850.26 111.076C851.443 111.176 852.863 111.176 853.809 110.977C863.272 108.697 873.682 108.399 884.328 108.201C885.847 108.201 887.078 107.765 888.391 107.301C889.735 106.825 891.166 106.318 893.081 106.218C893.665 106.218 894.249 106.151 894.816 106.086C895.628 105.993 896.406 105.903 897.103 106.02C900.573 106.591 904.173 106.564 907.767 106.537C911.033 106.512 914.294 106.487 917.448 106.912C924.55 107.838 931.757 107.705 938.929 107.573C942.508 107.507 946.079 107.441 949.623 107.507C950.175 107.54 950.701 107.54 951.209 107.54C952.225 107.54 953.172 107.54 954.118 107.805C957.903 108.796 961.452 109.193 964.528 107.309C965.474 106.714 967.603 106.416 969.259 106.813C972.808 107.507 976.356 107.309 979.905 107.11C980.133 107.11 980.386 107.09 980.648 107.069C981.199 107.024 981.789 106.976 982.271 107.11C986.884 108.528 992.298 108.773 997.666 109.016C1000.56 109.147 1003.43 109.277 1006.17 109.589C1015.16 110.68 1024.15 110.68 1033.37 110.283C1035.86 110.188 1038.35 110.388 1040.86 110.59C1043.61 110.811 1046.38 111.033 1049.22 110.878C1053.13 110.68 1057.09 110.556 1061.05 110.432C1065.01 110.308 1068.98 110.184 1072.88 109.986C1076.19 109.887 1078.79 109.887 1081.87 110.581C1086.13 111.671 1090.86 112.167 1095.83 111.771C1097.96 111.572 1099.85 111.374 1101.27 110.581C1104.34 108.994 1108.37 108.499 1112.86 108.598C1115.58 108.647 1118.3 108.746 1121.02 108.846C1123.74 108.945 1126.46 109.044 1129.19 109.093C1131.31 109.093 1133.21 109.292 1134.86 109.887C1136.78 110.6 1139.08 110.511 1141.59 110.414C1141.87 110.403 1142.15 110.392 1142.43 110.382C1150.24 110.085 1157.1 109.589 1161.36 106.317C1162.07 105.722 1165.86 105.425 1167.98 105.524C1174.03 105.897 1179.95 105.597 1185.83 105.299C1187.77 105.2 1189.71 105.102 1191.64 105.028C1193.2 104.972 1194.75 104.947 1196.31 104.923C1200.19 104.862 1204.08 104.802 1207.97 104.235C1209.86 103.938 1212.46 103.938 1214.12 104.334C1222 106.3 1229.88 105.46 1237.64 104.632C1239.66 104.416 1241.68 104.201 1243.69 104.037C1251.02 103.442 1257.65 103.442 1264.03 104.929C1268.29 105.921 1272.32 106.317 1277.05 105.822L1278.39 105.684C1286.74 104.83 1295.47 103.938 1303.78 103.938C1309.08 103.938 1313.51 103.251 1317.96 102.563C1320.06 102.237 1322.16 101.912 1324.36 101.657C1330.51 100.963 1335.24 101.856 1339.74 103.244C1342.34 104.037 1344.94 104.433 1348.26 104.632C1352.54 104.839 1356.6 105.384 1360.67 105.93C1362.44 106.167 1364.21 106.404 1366 106.615V92.5147V85V0Z" fill="white"/>
        </svg>